<!--<svg t="1662913323562" class="icon" viewBox="0 0 1024 1024" version="1.1" xmlns="http://www.w3.org/2000/svg" p-id="1351" width="128" height="128"><path d="M742.4 143.36H158.72c-31.104 0-56.32 25.216-56.32 56.32v737.28c0 31.104 25.216 56.32 56.32 56.32h583.68c31.104 0 56.32-25.216 56.32-56.32V199.68c0-31.104-25.216-56.32-56.32-56.32zM158.72 174.08h583.68a25.6 25.6 0 0 1 25.6 25.6v737.28a25.6 25.6 0 0 1-25.6 25.6H158.72a25.6 25.6 0 0 1-25.6-25.6V199.68a25.6 25.6 0 0 1 25.6-25.6z" fill="#000000" p-id="1352"></path><path d="M865.28 30.72c31.104 0 56.32 25.216 56.32 56.32v737.28c0 31.104-25.216 56.32-56.32 56.32h-81.92v-30.72h81.92a25.6 25.6 0 0 0 25.5744-24.48896L890.88 824.32V87.04a25.6 25.6 0 0 0-25.6-25.6H281.6a25.6 25.6 0 0 0-25.6 25.6v66.56h-30.72V87.04c0-30.61248 24.4224-55.51616 54.84544-56.29952L281.6 30.72z" fill="#000000" p-id="1353"></path><path d="M225.28 276.48h450.56v30.72H225.28zM225.28 368.64h450.56v30.72H225.28zM225.28 460.8h450.56v30.72H225.28zM225.28 552.96h450.56v30.72H225.28z" fill="#000000" p-id="1354"></path><path d="M225.28 645.12h450.56v225.28H225.28z" fill="#5459F6" p-id="1355"></path><path d="M675.84 645.12v225.28H225.28v-225.28h450.56z m-30.72 30.72H256v163.84h389.12v-163.84z" fill="#000000" p-id="1356"></path></svg>-->
<svg t="1662913471598" class="icon" viewBox="0 0 1024 1024" version="1.1" xmlns="http://www.w3.org/2000/svg" p-id="1020" width="128" height="128"><path d="M358.4 793.6c21.504-26.624 47.104-51.2 70.656-75.776l196.608-199.68L808.96 331.776c13.312-14.336 26.624-30.72 41.984-43.008 16.384-12.288 26.624-5.12 38.912 8.192 11.264 11.264 21.504 22.528 31.744 33.792 2.048 3.072 16.384 13.312 16.384 17.408V80.896C937.984 40.96 905.216 8.192 865.28 8.192H100.352c-38.912 1.024-71.68 32.768-71.68 72.704V921.6c0 39.936 32.768 72.704 72.704 72.704l190.464 1.024 37.888-141.312c-1.024 0 8.192-33.792 28.672-60.416z m78.848-365.568H175.104c-12.288 0-22.528-10.24-22.528-22.528 0-12.288 10.24-22.528 22.528-22.528h262.144c12.288 0 22.528 10.24 22.528 22.528 0 13.312-10.24 22.528-22.528 22.528z m183.296-117.76H175.104c-12.288 0-22.528-10.24-22.528-22.528s10.24-22.528 22.528-22.528h445.44c12.288 0 22.528 10.24 22.528 22.528s-10.24 22.528-22.528 22.528z m123.904-118.784H175.104c-12.288 0-22.528-10.24-22.528-22.528s10.24-22.528 22.528-22.528h569.344c12.288 0 22.528 10.24 22.528 22.528s-10.24 22.528-22.528 22.528z" fill="#4496FB" p-id="1021"></path><path d="M987.136 499.712L882.688 395.264c-11.264-11.264-30.72-11.264-41.984 0L403.456 832.512c-2.048 2.048-3.072 4.096-4.096 6.144l-44.032 156.672c-1.024 5.12 0 10.24 3.072 14.336 3.072 3.072 7.168 5.12 11.264 5.12h3.072L541.696 983.04c3.072-1.024 6.144-2.048 8.192-4.096l437.248-437.248c11.264-11.264 11.264-29.696 0-41.984z m-67.584 87.04c-5.12 5.12-14.336 6.144-19.456 1.024L795.648 483.328c-5.12-5.12-5.12-14.336 1.024-19.456 5.12-5.12 14.336-6.144 19.456-1.024l104.448 104.448c4.096 5.12 4.096 14.336-1.024 19.456z" fill="#F4C9A8" p-id="1022"></path></svg>